<svg width="186" height="30" viewBox="0 0 186 30" fill="none" xmlns="http://www.w3.org/2000/svg">
<path d="M15 0L18.3677 10.3647H29.2658L20.4491 16.7705L23.8168 27.1353L15 20.7295L6.18322 27.1353L9.55093 16.7705L0.734152 10.3647H11.6323L15 0Z" fill="#FBCA60"/>
<path d="M54 0L57.3677 10.3647H68.2658L59.4491 16.7705L62.8168 27.1353L54 20.7295L45.1832 27.1353L48.5509 16.7705L39.7342 10.3647H50.6323L54 0Z" fill="#FBCA60"/>
<path d="M93 0L96.3677 10.3647H107.266L98.4491 16.7705L101.817 27.1353L93 20.7295L84.1832 27.1353L87.5509 16.7705L78.7342 10.3647H89.6323L93 0Z" fill="#FBCA60"/>
<path d="M132 0L135.368 10.3647H146.266L137.449 16.7705L140.817 27.1353L132 20.7295L123.183 27.1353L126.551 16.7705L117.734 10.3647H128.632L132 0Z" fill="#FBCA60"/>
<path d="M171 0L174.368 10.3647H185.266L176.449 16.7705L179.817 27.1353L171 20.7295L162.183 27.1353L165.551 16.7705L156.734 10.3647H167.632L171 0Z" fill="#FBCA60"/>
</svg>
